<?xml version="1.0" encoding="UTF-8"?>
<svg width="34px" height="34px" viewBox="0 0 34 34" version="1.1" xmlns="http://www.w3.org/2000/svg" xmlns:xlink="http://www.w3.org/1999/xlink">
    <!-- Generator: Sketch 59.1 (86144) - https://sketch.com -->
    <title>dropdown-capital-markets</title>
    <desc>Created with Sketch.</desc>
    <defs>
        <polygon id="path-1" points="0.000148645161 0.0551990925 31.2474426 0.0551990925 31.2474426 15.6672 0.000148645161 15.6672"></polygon>
        <polygon id="path-3" points="0 0.74345472 10.4665517 0.74345472 10.4665517 7.57988352 0 7.57988352"></polygon>
    </defs>
    <g id="dropdown-capital-markets" stroke="none" stroke-width="1" fill="none" fill-rule="evenodd">
        <g id="Capital-Markets" transform="translate(1.000000, 0.000000)">
            <g>
                <g id="Group-3" transform="translate(0.000000, 15.837235)">
                    <mask id="mask-2" fill="white">
                        <use xlink:href="#path-1"></use>
                    </mask>
                    <g id="Clip-2"></g>
                    <path d="M11.9504764,15.6672922 L0.743374452,15.6672922 C0.333113806,15.6672922 0.000148645161,15.255337 0.000148645161,14.7456922 C0.000148645161,14.2360474 0.333113806,13.8240922 0.743374452,13.8240922 L11.9504764,13.8240922 C12.3168867,13.8240922 12.6743783,13.7365402 13.0110596,13.5660442 L19.4578003,10.2952858 C19.8138054,10.1155738 20.1534596,9.88609536 20.4671009,9.61422336 L29.1940583,2.05710336 C28.337119,1.69491456 27.2022132,1.97047296 26.3244635,2.50407936 L20.7086493,6.32779776 C20.5993951,6.40244736 20.4760196,6.44115456 20.3511577,6.44115456 L11.2473848,6.44115456 C10.8363809,6.44115456 10.504159,6.02919936 10.504159,5.51955456 C10.504159,5.01083136 10.8363809,4.59795456 11.2473848,4.59795456 L20.1601486,4.59795456 L25.6399525,0.86731776 C27.3887628,-0.19252224 29.7202622,-0.41647104 31.0573254,1.43133696 C31.2000248,1.62763776 31.2676583,1.89029376 31.2431319,2.15202816 C31.2186054,2.41468416 31.1041486,2.65153536 30.9302338,2.80267776 L21.3180945,11.1247258 C20.9152661,11.4740122 20.4782493,11.7698458 20.0204222,12.0011674 L13.5744248,15.2710042 C13.0586261,15.5336602 12.5116119,15.6672922 11.9504764,15.6672922" id="Fill-1" fill="#5256E9" mask="url(#mask-2)"></path>
                </g>
                <path d="M14.5096258,22.2785741 C14.2487535,22.2785741 13.9960568,22.1080781 13.8600465,21.8057933 C13.6593755,21.3625037 13.7879535,20.8003277 14.1461884,20.5524173 L15.8570942,19.3672397 C16.7214658,18.7893965 16.8820026,18.2161613 16.9020697,17.5019213 L12.4442013,17.5019213 C12.0331974,17.5019213 11.7009755,17.0899661 11.7009755,16.5803213 C11.7009755,16.0715981 12.0331974,15.6587213 12.4442013,15.6587213 L17.63712,15.6587213 C18.0473806,15.6587213 18.3803458,16.0715981 18.3803458,16.5803213 L18.3848052,16.9038029 C18.4063587,17.9617997 18.4427768,19.7331149 16.5728206,20.9828045 L14.8715768,22.1615309 C14.75712,22.2407885 14.6322581,22.2785741 14.5096258,22.2785741" id="Fill-4" fill="#5256E9"></path>
                <g id="Group-8" transform="translate(0.000000, 14.915635)">
                    <mask id="mask-4" fill="white">
                        <use xlink:href="#path-3"></use>
                    </mask>
                    <g id="Clip-7"></g>
                    <path d="M9.72332594,0.74345472 L8.25619819,0.74345472 C8.13356594,0.74345472 8.01316335,0.78124032 7.90465239,0.85220352 L0.392125935,5.84543232 C0.0301749677,6.08689152 -0.105835355,6.64445952 0.0881465806,7.09420032 C0.221927226,7.40385792 0.479083355,7.57988352 0.743671742,7.57988352 C0.862587871,7.57988352 0.982990452,7.54486272 1.09447432,7.47113472 L8.44274787,2.58665472 L9.72332594,2.58665472 C10.1335866,2.58665472 10.4665517,2.17469952 10.4665517,1.66505472 C10.4665517,1.15540992 10.1335866,0.74345472 9.72332594,0.74345472" id="Fill-6" fill="#65C8FA" mask="url(#mask-4)"></path>
                </g>
                <path d="M20.3513063,22.2785741 C20.277727,22.2785741 20.2034044,22.2647501 20.129825,22.2371021 C19.738145,22.0850381 19.5188934,21.5680205 19.6415257,21.0823373 C19.678687,20.9330381 20.5824495,17.3977805 22.3758534,15.5776205 C24.2220263,13.7058509 25.4736186,13.7058509 26.4784599,13.7058509 C26.8887205,13.7058509 27.2216857,14.1187277 27.2216857,14.6274509 L27.2216857,17.0733773 C27.2216857,17.5821005 26.8887205,17.9949773 26.4784599,17.9949773 C26.067456,17.9949773 25.7352341,17.5821005 25.7352341,17.0733773 L25.7352341,15.5803853 C25.0782225,15.6614861 24.3528341,15.9545549 23.3167773,17.0051789 C22.1120083,18.2272205 21.2795954,20.7588557 21.0603437,21.6316109 C20.9614947,22.0260557 20.6679205,22.2785741 20.3513063,22.2785741" id="Fill-9" fill="#5256E9"></path>
                <path d="M8.47634168,10.4886374 C8.06608103,10.4886374 7.73311587,10.0766822 7.73311587,9.56703744 L7.73311587,1.77583104 C7.73311587,1.26618624 8.06608103,0.85423104 8.47634168,0.85423104 C8.88660232,0.85423104 9.21956748,1.26618624 9.21956748,1.77583104 L9.21956748,9.56703744 C9.21956748,10.0766822 8.88660232,10.4886374 8.47634168,10.4886374" id="Fill-11" fill="#5256E9"></path>
                <path d="M10.9764046,4.98779136 C10.7861388,4.98779136 10.595873,4.89747456 10.450944,4.71776256 L8.43977497,2.22483456 L6.50218529,4.62836736 C6.211584,4.98871296 5.74186529,4.98871296 5.451264,4.62836736 C5.16066271,4.26894336 5.16066271,3.68557056 5.451264,3.32522496 L7.91431432,0.27012096 C8.193024,-0.07547904 8.68652594,-0.07547904 8.96523561,0.27012096 L11.5018653,3.41462016 C11.7924666,3.77496576 11.7924666,4.35741696 11.5018653,4.71776256 C11.3569363,4.89747456 11.1666705,4.98779136 10.9764046,4.98779136" id="Fill-13" fill="#5256E9"></path>
                <path d="M19.097856,24.4979712 C15.7414483,24.4979712 11.1520289,26.8932096 8.31290632,26.9918208 C7.96507665,27.0047232 7.61576052,27.0056448 7.26718761,27.0056448 L7.13043406,27.0056448 L6.96915406,27.0056448 C5.92046245,27.0056448 4.87251406,27.0185472 3.85355148,27.3088512 C2.84202116,27.5963904 1.83049084,28.2138624 1.14895277,29.2064256 C1.03226632,29.376 0.940106323,29.5271424 0.870243097,29.661696 L11.9502534,29.661696 C12.3166637,29.661696 12.6741554,29.574144 13.0108366,29.4027264 L19.4575773,26.131968 C19.8135825,25.952256 20.1532366,25.7227776 20.4668779,25.4509056 L21.1060521,24.8979456 C20.5181605,24.6140928 19.8381089,24.4979712 19.097856,24.4979712" id="Fill-15" fill="#E5E6FC"></path>
                <path d="M21.1061265,24.897577 L20.4669523,25.4514586 C20.153311,25.7233306 19.8136568,25.952809 19.4576516,26.132521 L13.010911,29.4032794 C12.6742297,29.5737754 12.3167381,29.6613274 11.9503277,29.6613274 L0.870317419,29.6613274 C0.288371613,30.7810714 1.24564645,30.7442074 2.27873032,30.814249 C3.45005419,30.8935066 4.62583742,30.9506458 5.80087742,30.9506458 C7.49468903,30.9506458 9.18627097,30.8299162 10.8592723,30.4760218 C12.7916594,30.0649882 14.35392,29.6447386 15.6530787,29.2051354 C18.7880052,28.1425306 20.3978323,26.9674906 22.0158348,25.5528346 C21.7467871,25.2735898 21.4413213,25.058857 21.1061265,24.897577" id="Fill-17" fill="#5256E9"></path>
                <path d="M17.3755045,12.131113 C16.9652439,12.131113 16.6322787,11.7191578 16.6322787,11.209513 L16.6322787,2.87179776 C16.6322787,2.36215296 16.9652439,1.95019776 17.3755045,1.95019776 C17.7857652,1.95019776 18.1187303,2.36215296 18.1187303,2.87179776 L18.1187303,11.209513 C18.1187303,11.7191578 17.7857652,12.131113 17.3755045,12.131113" id="Fill-19" fill="#65C8FA"></path>
                <path d="M17.4117739,12.9843302 C17.2215081,12.9843302 17.0312423,12.8940134 16.8863133,12.7143014 L14.3504268,9.56980224 C14.0598255,9.20945664 14.0598255,8.62608384 14.3504268,8.26665984 C14.6402849,7.90631424 15.1107468,7.90631424 15.4013481,8.26665984 L17.4117739,10.7595878 L19.3501068,8.35697664 C19.6407081,7.99663104 20.1104268,7.99663104 20.4010281,8.35697664 C20.6916294,8.71640064 20.6916294,9.29977344 20.4010281,9.66011904 L17.9372346,12.7143014 C17.7923055,12.8940134 17.6020397,12.9843302 17.4117739,12.9843302" id="Fill-21" fill="#65C8FA"></path>
                <path d="M24.2322085,21.2022374 C23.9505259,21.2022374 23.680735,21.0022502 23.555873,20.6631014 L23.1129105,19.4594918 C22.9427117,18.9968486 23.1069646,18.4503398 23.4808072,18.2383718 C23.8524201,18.0310118 24.2946395,18.230999 24.4648382,18.6945638 L24.9078008,19.8981734 C25.0787427,20.3608166 24.9137466,20.908247 24.5406472,21.1192934 C24.4403117,21.175511 24.3355169,21.2022374 24.2322085,21.2022374" id="Fill-23" fill="#5256E9"></path>
                <path d="M17.3755045,0 C16.9652439,0 16.6322787,0.4119552 16.6322787,0.9216 L16.6322787,2.8717056 C16.6322787,2.3620608 16.9652439,1.9501056 17.3755045,1.9501056 C17.7857652,1.9501056 18.1187303,2.3620608 18.1187303,2.8717056 L18.1187303,0.9216 C18.1187303,0.4119552 17.7857652,0 17.3755045,0" id="Fill-25" fill="#5256E9"></path>
                <path d="M17.3755045,1.95028992 C16.9652439,1.95028992 16.6322787,2.36224512 16.6322787,2.87188992 C16.6322787,3.38153472 16.9652439,3.79348992 17.3755045,3.79348992 C17.7857652,3.79348992 18.1187303,3.38153472 18.1187303,2.87188992 C18.1187303,2.36224512 17.7857652,1.95028992 17.3755045,1.95028992" id="Fill-27" fill="#2043E4"></path>
                <path d="M9.21956748,9.56703744 L9.21956748,9.56703744 C9.21956748,10.0766822 8.88660232,10.4886374 8.47634168,10.4886374 C8.06608103,10.4886374 7.73311587,10.0766822 7.73311587,9.56703744 L7.73311587,12.1309286 C7.73311587,12.6405734 8.06608103,13.0525286 8.47634168,13.0525286 C8.88660232,13.0525286 9.21956748,12.6405734 9.21956748,12.1309286 L9.21956748,9.56703744" id="Fill-29" fill="#65C8FA"></path>
                <path d="M8.47634168,8.64543744 C8.06608103,8.64543744 7.73311587,9.05739264 7.73311587,9.56703744 C7.73311587,10.0766822 8.06608103,10.4886374 8.47634168,10.4886374 C8.88660232,10.4886374 9.21956748,10.0766822 9.21956748,9.56703744 C9.21956748,9.05739264 8.88660232,8.64543744 8.47634168,8.64543744" id="Fill-31" fill="#2043E4"></path>
            </g>
        </g>
    </g>
</svg>