<?xml version="1.0" encoding="UTF-8"?>
<svg width="34px" height="34px" viewBox="0 0 34 34" version="1.1" xmlns="http://www.w3.org/2000/svg" xmlns:xlink="http://www.w3.org/1999/xlink">
    <!-- Generator: Sketch 59.1 (86144) - https://sketch.com -->
    <title>dropdown-active-strategies</title>
    <desc>Created with Sketch.</desc>
    <g id="dropdown-active-strategies" stroke="none" stroke-width="1" fill="none" fill-rule="evenodd">
        <g id="Active-Strategies-2" transform="translate(1.000000, 4.000000)">
            <path d="M21.0453862,15.1407862 L17.1704897,15.1407862 C17.1516621,15.509269 17.2924207,16.0857517 17.679731,16.9679586 C18.1127655,17.9568552 17.5981448,18.2276138 16.655869,18.2276138 C16.0847655,18.2276138 15.3549724,18.1280966 14.5839379,18.0285793 C13.8138,17.9281655 13.0015241,17.8286483 12.2645586,17.8286483 C11.6970414,17.8286483 11.1734552,17.8878207 10.7484897,18.0518897 L10.7484897,20.0216138 L15.641869,20.0216138 C16.1367655,20.0216138 16.5384207,20.423269 16.5384207,20.9181655 L17.8850414,20.9181655 C17.8850414,20.423269 18.2858,20.0216138 18.7815931,20.0216138 L21.0453862,20.0216138 L21.0453862,15.1407862" id="Fill-1" fill="#E5E6FC"></path>
            <path d="M5.71345517,11.2096759 L5.71345517,11.289469 C5.71345517,11.2760207 5.71435172,11.2625724 5.71435172,11.2491241 C5.71435172,11.2356759 5.71345517,11.2231241 5.71345517,11.2096759" id="Fill-8" fill="#5256E9"></path>
            <path d="M1.65001379,23.5494552 L1.60518621,23.5494552 C1.11028966,23.5494552 0.731048276,23.9511103 0.731048276,24.4460069 C0.731048276,24.9409034 1.15511724,25.3425586 1.65001379,25.3425586 C2.14491034,25.3425586 2.54656552,24.9409034 2.54656552,24.4460069 C2.54656552,23.9511103 2.14491034,23.5494552 1.65001379,23.5494552" id="Fill-10" fill="#65C8FA"></path>
            <path d="M27.2800966,23.5494552 L27.1904414,23.5494552 C26.6955448,23.5494552 26.3387172,23.9511103 26.3387172,24.4460069 C26.3387172,24.9409034 26.7852,25.3425586 27.2800966,25.3425586 C27.7749931,25.3425586 28.1766483,24.9409034 28.1766483,24.4460069 C28.1766483,23.9511103 27.7749931,23.5494552 27.2800966,23.5494552 M23.6185793,23.5494552 L23.5289241,23.5494552 C23.0340276,23.5494552 22.6772,23.9511103 22.6772,24.4460069 C22.6772,24.9409034 23.1236828,25.3425586 23.6185793,25.3425586 C24.1134759,25.3425586 24.515131,24.9409034 24.515131,24.4460069 C24.515131,23.9511103 24.1134759,23.5494552 23.6185793,23.5494552 M19.9570621,23.5494552 L19.8674069,23.5494552 C19.3725103,23.5494552 19.0156828,23.9511103 19.0156828,24.4460069 C19.0156828,24.9409034 19.4621655,25.3425586 19.9570621,25.3425586 C20.4519586,25.3425586 20.8536138,24.9409034 20.8536138,24.4460069 C20.8536138,23.9511103 20.4519586,23.5494552 19.9570621,23.5494552 M16.2955448,23.5494552 L16.2058897,23.5494552 C15.7109931,23.5494552 15.3541655,23.9511103 15.3541655,24.4460069 C15.3541655,24.9409034 15.8006483,25.3425586 16.2955448,25.3425586 C16.7904414,25.3425586 17.1920966,24.9409034 17.1920966,24.4460069 C17.1920966,23.9511103 16.7904414,23.5494552 16.2955448,23.5494552 M12.6349241,23.5494552 L12.545269,23.5494552 C12.0503724,23.5494552 11.6935448,23.9511103 11.6935448,24.4460069 C11.6935448,24.9409034 12.139131,25.3425586 12.6349241,25.3425586 C13.1298207,25.3425586 13.5314759,24.9409034 13.5314759,24.4460069 C13.5314759,23.9511103 13.1298207,23.5494552 12.6349241,23.5494552 M8.9734069,23.5494552 L8.88375172,23.5494552 C8.38885517,23.5494552 8.03202759,23.9511103 8.03202759,24.4460069 C8.03202759,24.9409034 8.47761379,25.3425586 8.9734069,25.3425586 C9.46830345,25.3425586 9.86995862,24.9409034 9.86995862,24.4460069 C9.86995862,23.9511103 9.46830345,23.5494552 8.9734069,23.5494552 M5.31188966,23.5494552 L5.22223448,23.5494552 C4.72733793,23.5494552 4.37051034,23.9511103 4.37051034,24.4460069 C4.37051034,24.9409034 4.81609655,25.3425586 5.31188966,25.3425586 C5.80678621,25.3425586 6.20844138,24.9409034 6.20844138,24.4460069 C6.20844138,23.9511103 5.80678621,23.5494552 5.31188966,23.5494552" id="Fill-12" fill="#65C8FA"></path>
            <path d="M30.8969655,23.5494552 L30.8521379,23.5494552 C30.3572414,23.5494552 29.978,23.9511103 29.978,24.4460069 C29.978,24.9409034 30.402069,25.3425586 30.8969655,25.3425586 C31.3918621,25.3425586 31.7935172,24.9409034 31.7935172,24.4460069 C31.7935172,23.9511103 31.3918621,23.5494552 30.8969655,23.5494552" id="Fill-14" fill="#65C8FA"></path>
            <path d="M30.8969655,8.46703448 L0.896551724,8.46703448 C0.401655172,8.46703448 -6.37038315e-15,8.06537931 -6.37038315e-15,7.57048276 L-6.37038315e-15,0.896551724 C-6.37038315e-15,0.400758621 0.401655172,-1.75185537e-14 0.896551724,-1.75185537e-14 L5.71372414,-1.75185537e-14 C6.20862069,-1.75185537e-14 6.61027586,0.400758621 6.61027586,0.896551724 C6.61027586,1.39144828 6.20862069,1.79310345 5.71372414,1.79310345 L1.79310345,1.79310345 L1.79310345,6.67393103 L30.0004138,6.67393103 L30.0004138,1.79310345 L8.83462069,1.79310345 C8.33972414,1.79310345 7.93806897,1.39144828 7.93806897,0.896551724 C7.93806897,0.400758621 8.33972414,-1.75185537e-14 8.83462069,-1.75185537e-14 L30.8969655,-1.75185537e-14 C31.3918621,-1.75185537e-14 31.7935172,0.400758621 31.7935172,0.896551724 L31.7935172,7.57048276 C31.7935172,8.06537931 31.3918621,8.46703448 30.8969655,8.46703448" id="Fill-28" fill="#5256E9"></path>
            <path d="M21.9419379,21.8146276 L18.7815931,21.8146276 C18.2858,21.8146276 17.8850414,21.4129724 17.8850414,20.9180759 C17.8850414,20.4231793 18.2858,20.0215241 18.7815931,20.0215241 L21.0453862,20.0215241 L21.0453862,15.1406966 L10.7484897,15.1406966 L10.7484897,20.0215241 L15.641869,20.0215241 C16.1367655,20.0215241 16.5384207,20.4231793 16.5384207,20.9180759 C16.5384207,21.4129724 16.1367655,21.8146276 15.641869,21.8146276 L9.85193793,21.8146276 C9.35614483,21.8146276 8.95538621,21.4129724 8.95538621,20.9180759 L8.95538621,14.2441448 C8.95538621,13.7492483 9.35614483,13.3475931 9.85193793,13.3475931 L21.9419379,13.3475931 C22.4368345,13.3475931 22.8384897,13.7492483 22.8384897,14.2441448 L22.8384897,20.9180759 C22.8384897,21.4129724 22.4368345,21.8146276 21.9419379,21.8146276" id="Fill-30" fill="#5256E9"></path>
            <path d="M27.8733448,8.46703448 L26.0802414,8.46703448 L26.0802414,13.3478621 L5.71327586,13.3478621 L5.71327586,11.2893793 C5.70789655,11.3978621 5.6827931,11.4946897 5.64244828,11.5986897 C5.59762069,11.7062759 5.53486207,11.8048966 5.45417241,11.8855862 C5.28382759,12.055931 5.05072414,12.1545517 4.81762069,12.1545517 C4.58451724,12.1545517 4.35141379,12.055931 4.18106897,11.8855862 C4.10037931,11.8048966 4.03762069,11.7062759 3.9927931,11.5986897 C3.94796552,11.4821379 3.92106897,11.3745517 3.92106897,11.2490345 C3.92106897,11.015931 4.01968966,10.7828276 4.18106897,10.6214483 C4.26175862,10.5317931 4.36037931,10.4690345 4.47693103,10.4242069 C4.58362069,10.3811724 4.69748276,10.3596552 4.81134483,10.3596552 C5.04893103,10.3596552 5.28472414,10.4511034 5.45417241,10.6214483 C5.60658621,10.7738621 5.70251724,10.9890345 5.71327586,11.2095862 L5.71327586,8.46703448 L3.92017241,8.46703448 L3.92017241,14.2444138 C3.92017241,14.7393103 4.32182759,15.1409655 4.81672414,15.1409655 L8.9552069,15.1409655 L8.9552069,14.2444138 C8.9552069,13.7495172 9.35686207,13.3478621 9.85175862,13.3478621 L21.9417586,13.3478621 C22.4375517,13.3478621 22.8383103,13.7495172 22.8383103,14.2444138 L22.8383103,15.1409655 L26.9767931,15.1409655 C27.4716897,15.1409655 27.8733448,14.7393103 27.8733448,14.2444138 L27.8733448,8.46703448" id="Fill-32" fill="#65C8FA"></path>
            <path d="M4.81116552,10.3599241 C4.6982,10.3599241 4.58433793,10.3805448 4.47675172,10.4244759 C4.3602,10.4693034 4.26157931,10.5320621 4.18088966,10.6217172 C4.01951034,10.7830966 3.92088966,11.0153034 3.92088966,11.2493034 C3.92088966,11.3748207 3.94778621,11.4815103 3.99261379,11.5989586 C4.03744138,11.7056483 4.1002,11.8051655 4.18088966,11.8858552 C4.35123448,12.0562 4.58433793,12.1539241 4.81744138,12.1539241 C5.05054483,12.1539241 5.28364828,12.0562 5.4539931,11.8858552 C5.53468276,11.8051655 5.59744138,11.7056483 5.64226897,11.5989586 C5.68261379,11.4949586 5.70771724,11.398131 5.71309655,11.2896483 L5.71309655,11.2098552 C5.70323448,10.9893034 5.6064069,10.7732345 5.4539931,10.6217172 C5.28454483,10.4513724 5.04875172,10.3599241 4.81116552,10.3599241" id="Fill-34" fill="#2043E4"></path>
            <path d="M26.9767931,6.67393103 L4.81672414,6.67393103 C4.32182759,6.67393103 3.92017241,7.07558621 3.92017241,7.57048276 L3.92017241,8.46703448 L5.71327586,8.46703448 L26.0802414,8.46703448 L27.8733448,8.46703448 L27.8733448,7.57048276 C27.8733448,7.07558621 27.4716897,6.67393103 26.9767931,6.67393103" id="Fill-36" fill="#2043E4"></path>
            <path d="M21.9419379,13.3476828 L9.85193793,13.3476828 C9.35614483,13.3476828 8.95538621,13.7493379 8.95538621,14.2442345 L8.95538621,15.1407862 L22.8384897,15.1407862 L22.8384897,14.2442345 C22.8384897,13.7493379 22.4368345,13.3476828 21.9419379,13.3476828" id="Fill-38" fill="#2043E4"></path>
            <path d="M30.8969655,5.12988966 L28.8743448,5.12988966 C28.3785517,5.12988966 27.9777931,4.72823448 27.9777931,4.23333793 C27.9777931,3.73844138 28.3785517,3.33678621 28.8743448,3.33678621 L30.8969655,3.33678621 C31.3918621,3.33678621 31.7935172,3.73844138 31.7935172,4.23333793 C31.7935172,4.72823448 31.3918621,5.12988966 30.8969655,5.12988966" id="Fill-76" fill="#5256E9"></path>
        </g>
    </g>
</svg>