<?xml version="1.0" encoding="UTF-8"?>
<svg width="34px" height="34px" viewBox="0 0 34 34" version="1.1" xmlns="http://www.w3.org/2000/svg" xmlns:xlink="http://www.w3.org/1999/xlink">
    <!-- Generator: Sketch 59.1 (86144) - https://sketch.com -->
    <title>dropdown-advisory</title>
    <desc>Created with Sketch.</desc>
    <defs>
        <polygon id="path-1" points="0.74905 0.561 9.47655 0.561 9.47655 5.9727 0.74905 5.9727"></polygon>
    </defs>
    <g id="dropdown-advisory" stroke="none" stroke-width="1" fill="none" fill-rule="evenodd">
        <g id="Active-Strategies-1" transform="translate(1.000000, 1.000000)">
            <path d="M27.1129362,11.9409 C26.5609362,11.9409 26.1129362,11.4929 26.1129362,10.9409 L26.1129362,2.4869 C26.1129362,1.9349 26.5609362,1.4869 27.1129362,1.4869 C27.6649362,1.4869 28.1129362,1.9349 28.1129362,2.4869 L28.1129362,10.9409 C28.1129362,11.4929 27.6649362,11.9409 27.1129362,11.9409" id="Fill-3" fill="#65C8FA"></path>
            <g id="Group-7" transform="translate(21.999936, 0.000000)">
                <mask id="mask-2" fill="white">
                    <use xlink:href="#path-1"></use>
                </mask>
                <g id="Clip-6"></g>
                <path d="M8.4763,5.9727 C8.2203,5.9727 7.9643,5.8747 7.7693,5.6797 L5.0643,2.9747 L2.4563,5.5817 C2.0653,5.9727 1.4333,5.9727 1.0423,5.5817 C0.6513,5.1917 0.6513,4.5577 1.0423,4.1677 L4.3573,0.8537 C4.7473,0.4627 5.3803,0.4627 5.7713,0.8537 L9.1833,4.2657 C9.5743,4.6567 9.5743,5.2887 9.1833,5.6797 C8.9883,5.8747 8.7323,5.9727 8.4763,5.9727" id="Fill-5" fill="#5256E9" mask="url(#mask-2)"></path>
            </g>
            <path d="M12.9308362,4.3584 L12.8808362,4.3584 C12.3288362,4.3584 11.9058362,4.8064 11.9058362,5.3584 C11.9058362,5.9104 12.3788362,6.3584 12.9308362,6.3584 C13.4828362,6.3584 13.9308362,5.9104 13.9308362,5.3584 C13.9308362,4.8064 13.4828362,4.3584 12.9308362,4.3584" id="Fill-16" fill="#65C8FA"></path>
            <path d="M16.3312362,4.3584 L16.2482362,4.3584 C15.6962362,4.3584 15.2892362,4.8064 15.2892362,5.3584 C15.2892362,5.9104 15.7792362,6.3584 16.3312362,6.3584 C16.8832362,6.3584 17.3312362,5.9104 17.3312362,5.3584 C17.3312362,4.8064 16.8832362,4.3584 16.3312362,4.3584" id="Fill-18" fill="#65C8FA"></path>
            <path d="M19.6979362,4.3584 L19.6479362,4.3584 C19.0959362,4.3584 18.6729362,4.8064 18.6729362,5.3584 C18.6729362,5.9104 19.1459362,6.3584 19.6979362,6.3584 C20.2499362,6.3584 20.6979362,5.9104 20.6979362,5.3584 C20.6979362,4.8064 20.2499362,4.3584 19.6979362,4.3584" id="Fill-20" fill="#65C8FA"></path>
            <path d="M13.2658362,25.5913 L13.2158362,25.5913 C12.6638362,25.5913 12.2408362,26.0393 12.2408362,26.5913 C12.2408362,27.1433 12.7138362,27.5913 13.2658362,27.5913 C13.8178362,27.5913 14.2658362,27.1433 14.2658362,26.5913 C14.2658362,26.0393 13.8178362,25.5913 13.2658362,25.5913" id="Fill-22" fill="#65C8FA"></path>
            <path d="M16.6661362,25.5913 L16.5831362,25.5913 C16.0311362,25.5913 15.6241362,26.0393 15.6241362,26.5913 C15.6241362,27.1433 16.1141362,27.5913 16.6661362,27.5913 C17.2181362,27.5913 17.6661362,27.1433 17.6661362,26.5913 C17.6661362,26.0393 17.2181362,25.5913 16.6661362,25.5913" id="Fill-24" fill="#65C8FA"></path>
            <path d="M20.0328362,25.5913 L19.9828362,25.5913 C19.4308362,25.5913 19.0078362,26.0393 19.0078362,26.5913 C19.0078362,27.1433 19.4808362,27.5913 20.0328362,27.5913 C20.5848362,27.5913 21.0328362,27.1433 21.0328362,26.5913 C21.0328362,26.0393 20.5848362,25.5913 20.0328362,25.5913" id="Fill-26" fill="#65C8FA"></path>
            <path d="M28.1129362,10.9409 L28.1129362,10.9409 C28.1129362,11.4929 27.6649362,11.9409 27.1129362,11.9409 C26.5609362,11.9409 26.1129362,11.4929 26.1129362,10.9409 L26.1129362,12.0639 C26.1129362,13.3489 25.0679362,14.3939 23.7829362,14.3939 L21.2589362,14.3939 C20.7069362,14.3939 20.2589362,14.8419 20.2589362,15.3939 C20.2589362,15.9459 20.7069362,16.3939 21.2589362,16.3939 L23.7829362,16.3939 C26.1709362,16.3939 28.1129362,14.4519 28.1129362,12.0639 L28.1129362,10.9409" id="Fill-40" fill="#5256E9"></path>
            <path d="M27.1129362,9.9409 C26.5609362,9.9409 26.1129362,10.3889 26.1129362,10.9409 C26.1129362,11.4929 26.5609362,11.9409 27.1129362,11.9409 C27.6649362,11.9409 28.1129362,11.4929 28.1129362,10.9409 C28.1129362,10.3889 27.6649362,9.9409 27.1129362,9.9409" id="Fill-42" fill="#2043E4"></path>
            <path d="M17.6017362,14.394 L8.53873622,14.394 C6.15073622,14.394 4.20773622,16.336 4.20773622,18.724 L4.20773622,19.97 C4.83173622,19.67 5.51173622,19.494 6.20773622,19.457 L6.20773622,18.724 C6.20773622,17.439 7.25373622,16.394 8.53873622,16.394 L17.6017362,16.394 C18.1537362,16.394 18.6017362,15.946 18.6017362,15.394 C18.6017362,14.842 18.1537362,14.394 17.6017362,14.394" id="Fill-44" fill="#5256E9"></path>
            <path d="M9.95133622,9.23 C9.69533622,9.23 9.43933622,9.132 9.24433622,8.937 L3.50133622,3.194 C3.11033622,2.803 3.11033622,2.17 3.50133622,1.78 C3.89133622,1.389 4.52433622,1.389 4.91533622,1.78 L10.6583362,7.523 C11.0493362,7.914 11.0493362,8.546 10.6583362,8.937 C10.4633362,9.132 10.2073362,9.23 9.95133622,9.23" id="Fill-46" fill="#65C8FA"></path>
            <path d="M9.95133622,1.4868 C9.69533622,1.4868 9.43933622,1.5848 9.24433622,1.7798 L7.07933622,3.9448 L8.49333622,5.3588 L10.6583362,3.1938 C11.0493362,2.8028 11.0493362,2.1708 10.6583362,1.7798 C10.4633362,1.5848 10.2073362,1.4868 9.95133622,1.4868 M5.66533622,5.3588 L3.50133622,7.5228 C3.11033622,7.9138 3.11033622,8.5468 3.50133622,8.9368 C3.69633622,9.1328 3.95233622,9.2298 4.20833622,9.2298 C4.46433622,9.2298 4.72033622,9.1328 4.91533622,8.9368 L7.07933622,6.7728 L5.66533622,5.3588" id="Fill-48" fill="#5256E9"></path>
            <polygon id="Fill-50" fill="#2043E4" points="7.07973622 3.9443 5.66573622 5.3583 7.07973622 6.7723 8.49373622 5.3583"></polygon>
            <path d="M22.3698362,30.4629 C22.1138362,30.4629 21.8578362,30.3649 21.6628362,30.1699 C21.2718362,29.7789 21.2718362,29.1469 21.6628362,28.7559 L27.4058362,23.0129 C27.7968362,22.6219 28.4298362,22.6219 28.8198362,23.0129 C29.2108362,23.4029 29.2108362,24.0359 28.8198362,24.4269 L23.0768362,30.1699 C22.8818362,30.3649 22.6258362,30.4629 22.3698362,30.4629" id="Fill-52" fill="#65C8FA"></path>
            <path d="M22.3698362,22.7197 C22.1138362,22.7197 21.8578362,22.8177 21.6628362,23.0127 C21.2718362,23.4037 21.2718362,24.0357 21.6628362,24.4267 L23.8278362,26.5917 L25.2418362,25.1777 L23.0768362,23.0127 C22.8818362,22.8177 22.6258362,22.7197 22.3698362,22.7197 M26.6558362,26.5917 L25.2418362,28.0057 L27.4058362,30.1697 C27.6008362,30.3657 27.8568362,30.4627 28.1128362,30.4627 C28.3688362,30.4627 28.6248362,30.3657 28.8198362,30.1697 C29.2108362,29.7797 29.2108362,29.1467 28.8198362,28.7557 L26.6558362,26.5917" id="Fill-54" fill="#5256E9"></path>
            <polygon id="Fill-56" fill="#2043E4" points="25.2413362 25.1772 23.8273362 26.5912 25.2413362 28.0052 26.6553362 26.5912"></polygon>
            <path d="M6.48553622,19.4497 C6.39253622,19.4497 6.30053622,19.4517 6.20853622,19.4567 L6.20853622,26.5917 C6.20853622,27.1437 5.76053622,27.5917 5.20853622,27.5917 C4.65553622,27.5917 4.20853622,27.1437 4.20853622,26.5917 L4.20853622,19.9697 C3.14553622,20.4807 2.24853622,21.3527 1.71853622,22.5087 C0.515536219,25.1387 1.67153622,28.2477 4.30153622,29.4517 C5.00853622,29.7747 5.74953622,29.9287 6.47853622,29.9287 C8.46453622,29.9287 10.3645362,28.7927 11.2445362,26.8687 C12.4485362,24.2387 11.2925362,21.1297 8.66153622,19.9257 C7.95553622,19.6027 7.21453622,19.4497 6.48553622,19.4497" id="Fill-58" fill="#E5E6FC"></path>
            <path d="M6.20813622,19.457 C5.51213622,19.494 4.83213622,19.67 4.20813622,19.97 L4.20813622,26.591 C4.20813622,27.144 4.65613622,27.591 5.20813622,27.591 C5.76013622,27.591 6.20813622,27.144 6.20813622,26.591 L6.20813622,19.457" id="Fill-60" fill="#4A4EE6"></path>
            <path d="M9.75503622,26.5913 C9.75503622,24.0803 7.71903622,22.0453 5.20803622,22.0453 C2.69703622,22.0453 0.661036219,24.0803 0.661036219,26.5913 C0.661036219,29.1023 2.69703622,31.1383 5.20803622,31.1383 C7.71903622,31.1383 9.75503622,29.1023 9.75503622,26.5913" id="Fill-62" fill="#FFFFFF"></path>
            <path d="M5.20133622,32 C4.33533622,32 3.47733622,31.79 2.69033622,31.375 C1.41233622,30.703 0.472336219,29.573 0.0453362193,28.193 C-0.118663781,27.666 0.176336219,27.105 0.703336219,26.942 C1.23133622,26.779 1.79133622,27.073 1.95533622,27.601 C2.22433622,28.47 2.81633622,29.182 3.62133622,29.605 C4.42633622,30.03 5.34833622,30.115 6.21733622,29.844 C7.08633622,29.575 7.79833622,28.983 8.22233622,28.178 C8.64533622,27.373 8.73033622,26.451 8.46133622,25.582 C8.19133622,24.713 7.59933622,24.001 6.79433622,23.577 C5.99033622,23.153 5.06833622,23.07 4.19933622,23.338 C3.30533622,23.616 2.58233622,24.229 2.16333622,25.065 C1.91633622,25.558 1.31733622,25.758 0.821336219,25.511 C0.327336219,25.264 0.127336219,24.663 0.375336219,24.169 C1.04033622,22.842 2.18833622,21.868 3.60633622,21.428 C4.98433622,21 6.44933622,21.135 7.72633622,21.808 C9.00433622,22.48 9.94333622,23.61 10.3713362,24.989 C10.7993362,26.369 10.6643362,27.832 9.99233622,29.109 C9.31933622,30.387 8.18933622,31.327 6.81033622,31.754 C6.28133622,31.918 5.74033622,32 5.20133622,32" id="Fill-64" fill="#65C8FA"></path>
            <path d="M5.30683622,27.5952 C5.04683622,27.5952 4.78683622,27.4852 4.59683622,27.2952 C4.41683622,27.1152 4.30683622,26.8552 4.30683622,26.5952 C4.30683622,26.3252 4.41683622,26.0652 4.59683622,25.8852 C4.97683622,25.5152 5.64683622,25.5152 6.01683622,25.8852 C6.19683622,26.0752 6.30683622,26.3252 6.30683622,26.5952 C6.30683622,26.8552 6.19683622,27.1152 6.01683622,27.2952 C5.82683622,27.4852 5.56683622,27.5952 5.30683622,27.5952" id="Fill-66" fill="#5256E9"></path>
            <path d="M9.43893622,9.0912 C9.47993622,9.11893333 9.52293622,9.14346667 9.56693622,9.16266667 C9.60893622,9.1808 9.65293622,9.19573333 9.69693622,9.20746667 C9.60793622,9.18186667 9.52093622,9.14346667 9.43893622,9.0912" id="Fill-68" fill="#5256E9"></path>
            <path d="M9.96843622,7.2271 C9.83143622,7.2271 9.69243622,7.2571 9.56743622,7.3051 C9.44743622,7.3551 9.33743622,7.4251 9.24643622,7.5251 C9.14643622,7.6151 9.07643622,7.7251 9.02743622,7.8451 C8.97643622,7.9651 8.95643622,8.0951 8.95643622,8.2351 C8.95643622,8.4951 9.05643622,8.7551 9.24643622,8.9351 C9.30343622,8.9921 9.36843622,9.0451 9.43943622,9.0891 C9.52043622,9.1381 9.60743622,9.1741 9.69743622,9.1971 C9.77843622,9.2171 9.86343622,9.2251 9.94743622,9.2251 L10.1464362,9.2051 L10.3204362,9.1601 C10.3344362,9.1541 10.3494362,9.1481 10.3634362,9.1411 L10.4714362,9.0841 C10.4904362,9.0721 10.5104362,9.0601 10.5294362,9.0461 L10.6564362,8.9351 C10.8464362,8.7451 10.9474362,8.4951 10.9474362,8.2351 C10.9474362,7.9651 10.8464362,7.7051 10.6564362,7.5251 L10.5074362,7.3951 L10.3374362,7.3051 L10.1464362,7.2451 C10.0884362,7.2331 10.0294362,7.2271 9.96843622,7.2271" id="Fill-70" fill="#2043E4"></path>
            <path d="M28.9576362,23.1841 C29.1716362,23.5201 29.1646362,23.9561 28.9366362,24.2861 C29.0526362,24.1221 29.1166362,23.9221 29.1166362,23.7151 C29.1166362,23.5281 29.0606362,23.3411 28.9576362,23.1841" id="Fill-72" fill="#5256E9"></path>
            <path d="M28.1119362,22.7305 C27.8519362,22.7305 27.5919362,22.8255 27.4069362,23.0155 C27.2169362,23.1955 27.1169362,23.4555 27.1169362,23.7155 C27.1169362,23.9855 27.2169362,24.2455 27.4069362,24.4255 C27.5969362,24.6155 27.8469362,24.7255 28.1169362,24.7255 C28.3769362,24.7255 28.6369362,24.6155 28.8169362,24.4255 C28.8619362,24.3825 28.9019362,24.3365 28.9369362,24.2865 C29.1649362,23.9565 29.1719362,23.5205 28.9579362,23.1845 C28.9179362,23.1225 28.8699362,23.0655 28.8169362,23.0155 C28.6319362,22.8255 28.3719362,22.7305 28.1119362,22.7305" id="Fill-74" fill="#2043E4"></path>
        </g>
    </g>
</svg>