<?xml version="1.0" encoding="UTF-8"?>
<svg width="34px" height="34px" viewBox="0 0 34 34" version="1.1" xmlns="http://www.w3.org/2000/svg" xmlns:xlink="http://www.w3.org/1999/xlink">
    <!-- Generator: Sketch 59.1 (86144) - https://sketch.com -->
    <title>dropdown-index-strategies</title>
    <desc>Created with Sketch.</desc>
    <defs>
        <polygon id="path-1" points="0.0891146667 0.000101454545 1.76311467 0.000101454545 1.76311467 2.02909091 0.0891146667 2.02909091"></polygon>
        <polygon id="path-3" points="0.224192 0.000101454545 23.002992 0.000101454545 23.002992 2.02909091 0.224192 2.02909091"></polygon>
        <polygon id="path-5" points="0.818069333 0.000101454545 2.49206933 0.000101454545 2.49206933 2.02909091 0.818069333 2.02909091"></polygon>
        <polygon id="path-7" points="0 0.902894727 16.4428133 0.902894727 16.4428133 14.030352 0 14.030352"></polygon>
    </defs>
    <g id="dropdown-index-strategies" stroke="none" stroke-width="1" fill="none" fill-rule="evenodd">
        <g id="Index-Strategies" transform="translate(2.000000, 2.000000)">
            <g>
                <g id="Group-3" transform="translate(0.000000, 27.657118)">
                    <mask id="mask-2" fill="white">
                        <use xlink:href="#path-1"></use>
                    </mask>
                    <g id="Clip-2"></g>
                    <path d="M0.936448,0.000101454545 L0.895114667,0.000101454545 C0.437968,0.000101454545 0.0891146667,0.453603273 0.0891146667,1.01464691 C0.0891146667,1.57569055 0.480128,2.02919236 0.936448,2.02919236 C1.392768,2.02919236 1.76311467,1.57569055 1.76311467,1.01464691 C1.76311467,0.453603273 1.392768,0.000101454545 0.936448,0.000101454545" id="Fill-1" fill="#65C8FA" mask="url(#mask-2)"></path>
                </g>
                <g id="Group-6" transform="translate(3.306667, 27.657118)">
                    <mask id="mask-4" fill="white">
                        <use xlink:href="#path-3"></use>
                    </mask>
                    <g id="Clip-5"></g>
                    <path d="M22.1763253,0.000101454545 L22.090352,0.000101454545 C21.634032,0.000101454545 21.2636853,0.453603273 21.2636853,1.01464691 C21.2636853,1.57569055 21.634032,2.02919236 22.090352,2.02919236 L22.1763253,2.02919236 C22.6326453,2.02919236 23.002992,1.57569055 23.002992,1.01464691 C23.002992,0.453603273 22.6326453,0.000101454545 22.1763253,0.000101454545 M18.6696053,0.000101454545 L18.583632,0.000101454545 C18.127312,0.000101454545 17.7569653,0.453603273 17.7569653,1.01464691 C17.7569653,1.57569055 18.127312,2.02919236 18.583632,2.02919236 L18.6696053,2.02919236 C19.1259253,2.02919236 19.496272,1.57569055 19.496272,1.01464691 C19.496272,0.453603273 19.1259253,0.000101454545 18.6696053,0.000101454545 M15.1628853,0.000101454545 L15.0777387,0.000101454545 C14.620592,0.000101454545 14.251072,0.453603273 14.251072,1.01464691 C14.251072,1.57569055 14.620592,2.02919236 15.0777387,2.02919236 L15.1628853,2.02919236 C15.6192053,2.02919236 15.989552,1.57569055 15.989552,1.01464691 C15.989552,0.453603273 15.6192053,0.000101454545 15.1628853,0.000101454545 M11.6561653,0.000101454545 L11.570192,0.000101454545 C11.113872,0.000101454545 10.7435253,0.453603273 10.7435253,1.01464691 C10.7435253,1.57569055 11.113872,2.02919236 11.570192,2.02919236 L11.6561653,2.02919236 C12.1124853,2.02919236 12.482832,1.57569055 12.482832,1.01464691 C12.482832,0.453603273 12.1124853,0.000101454545 11.6561653,0.000101454545 M8.14944533,0.000101454545 L8.06429867,0.000101454545 C7.607152,0.000101454545 7.237632,0.453603273 7.237632,1.01464691 C7.237632,1.57569055 7.607152,2.02919236 8.06429867,2.02919236 L8.14944533,2.02919236 C8.60576533,2.02919236 8.976112,1.57569055 8.976112,1.01464691 C8.976112,0.453603273 8.60576533,0.000101454545 8.14944533,0.000101454545 M4.64272533,0.000101454545 L4.55757867,0.000101454545 C4.100432,0.000101454545 3.730912,0.453603273 3.730912,1.01464691 C3.730912,1.57569055 4.100432,2.02919236 4.55757867,2.02919236 L4.64272533,2.02919236 C5.09904533,2.02919236 5.469392,1.57569055 5.469392,1.01464691 C5.469392,0.453603273 5.09904533,0.000101454545 4.64272533,0.000101454545 M1.13600533,0.000101454545 L1.05085867,0.000101454545 C0.594538667,0.000101454545 0.224192,0.453603273 0.224192,1.01464691 C0.224192,1.57569055 0.594538667,2.02919236 1.05085867,2.02919236 L1.13600533,2.02919236 C1.593152,2.02919236 1.962672,1.57569055 1.962672,1.01464691 C1.962672,0.453603273 1.593152,0.000101454545 1.13600533,0.000101454545" id="Fill-4" fill="#65C8FA" mask="url(#mask-4)"></path>
                </g>
                <g id="Group-9" transform="translate(27.280000, 27.657118)">
                    <mask id="mask-6" fill="white">
                        <use xlink:href="#path-5"></use>
                    </mask>
                    <g id="Clip-8"></g>
                    <path d="M1.66540267,0.000101454545 L1.62406933,0.000101454545 C1.16692267,0.000101454545 0.818069333,0.453603273 0.818069333,1.01464691 C0.818069333,1.57569055 1.20908267,2.02919236 1.66540267,2.02919236 C2.12172267,2.02919236 2.49206933,1.57569055 2.49206933,1.01464691 C2.49206933,0.453603273 2.12172267,0.000101454545 1.66540267,0.000101454545" id="Fill-7" fill="#65C8FA" mask="url(#mask-6)"></path>
                </g>
                <path d="M19.434768,11.1490429 C19.2008213,11.1490429 18.9643947,11.2078865 18.747808,11.3133993 C18.2699947,11.5477593 17.8756747,11.8724138 17.5392213,12.3512793 C16.9481547,13.193352 16.136368,13.7199011 15.6163947,14.6299484 C15.0955947,15.5399956 14.836848,16.9725338 14.0093547,17.4250211 C13.6679413,17.6096684 13.2876747,17.7101084 12.9131947,17.7101084 C12.376688,17.7101084 11.850928,17.5061847 11.4657013,17.0526829 C10.9821013,16.485552 10.7035147,15.5521702 10.050448,15.3746247 C9.98018133,15.3553484 9.91074133,15.347232 9.842128,15.347232 C9.32546133,15.347232 8.855088,15.8524756 8.47399467,16.3232247 C6.91242133,18.2508611 5.35167467,20.1784975 3.790928,22.1061338 C3.00311467,23.0780684 2.216128,24.0510175 1.42914133,25.022952 C1.20759467,25.2948502 0.668608,25.7179156 0.709941333,26.1480829 C0.754581333,26.6269484 1.179488,26.7202865 1.52999467,26.7202865 C1.623408,26.7202865 1.71103467,26.7141993 1.784608,26.7060829 C1.878848,26.6959375 1.97722133,26.6918793 2.079728,26.6918793 C2.49306133,26.6918793 2.97418133,26.7618829 3.52143467,26.830872 C4.06786133,26.9008756 4.67959467,26.9708793 5.35498133,26.9708793 C7.36295467,26.9708793 9.928928,26.3540356 12.9809813,23.2901084 C19.8819947,16.3617775 22.1139947,16.9370247 23.179568,15.3056356 C24.245968,13.6722175 24.2517547,13.0472575 24.0368213,12.4780975 C23.8706613,12.0377847 23.482128,11.7182029 23.100208,11.7182029 C22.9869547,11.7182029 22.8753547,11.7455956 22.7695413,11.8064684 C22.4041547,12.0174938 22.187568,12.5531738 21.793248,12.6607156 C21.746128,12.6739047 21.6998347,12.679992 21.6535413,12.679992 C21.3857013,12.679992 21.1253013,12.4821556 20.9260747,12.2508393 C20.692128,11.976912 20.5003413,11.6441411 20.230848,11.4249993 C19.9960747,11.2342647 19.717488,11.1490429 19.434768,11.1490429" id="Fill-10" fill="#E5E6FC"></path>
                <path d="M0.936448,0 L0.895114667,0 C0.437968,0 0.0891146667,0.453501818 0.0891146667,1.01454545 C0.0891146667,1.57558909 0.480128,2.02909091 0.936448,2.02909091 C1.392768,2.02909091 1.76311467,1.57558909 1.76311467,1.01454545 C1.76311467,0.453501818 1.392768,0 0.936448,0" id="Fill-12" fill="#65C8FA"></path>
                <path d="M25.482992,0 L25.3970187,0 C24.9406987,0 24.570352,0.453501818 24.570352,1.01454545 C24.570352,1.57558909 24.9406987,2.02909091 25.3970187,2.02909091 L25.482992,2.02909091 C25.939312,2.02909091 26.3096587,1.57558909 26.3096587,1.01454545 C26.3096587,0.453501818 25.939312,0 25.482992,0 M21.976272,0 L21.8902987,0 C21.4339787,0 21.063632,0.453501818 21.063632,1.01454545 C21.063632,1.57558909 21.4339787,2.02909091 21.8902987,2.02909091 L21.976272,2.02909091 C22.432592,2.02909091 22.8029387,1.57558909 22.8029387,1.01454545 C22.8029387,0.453501818 22.432592,0 21.976272,0 M18.469552,0 L18.3844053,0 C17.9272587,0 17.5577387,0.453501818 17.5577387,1.01454545 C17.5577387,1.57558909 17.9272587,2.02909091 18.3844053,2.02909091 L18.469552,2.02909091 C18.925872,2.02909091 19.2962187,1.57558909 19.2962187,1.01454545 C19.2962187,0.453501818 18.925872,0 18.469552,0 M14.962832,0 L14.8768587,0 C14.4205387,0 14.050192,0.453501818 14.050192,1.01454545 C14.050192,1.57558909 14.4205387,2.02909091 14.8768587,2.02909091 L14.962832,2.02909091 C15.419152,2.02909091 15.7894987,1.57558909 15.7894987,1.01454545 C15.7894987,0.453501818 15.419152,0 14.962832,0 M11.456112,0 L11.3709653,0 C10.9138187,0 10.5442987,0.453501818 10.5442987,1.01454545 C10.5442987,1.57558909 10.9138187,2.02909091 11.3709653,2.02909091 L11.456112,2.02909091 C11.912432,2.02909091 12.2827787,1.57558909 12.2827787,1.01454545 C12.2827787,0.453501818 11.912432,0 11.456112,0 M7.949392,0 L7.86424533,0 C7.40709867,0 7.03757867,0.453501818 7.03757867,1.01454545 C7.03757867,1.57558909 7.40709867,2.02909091 7.86424533,2.02909091 L7.949392,2.02909091 C8.405712,2.02909091 8.77605867,1.57558909 8.77605867,1.01454545 C8.77605867,0.453501818 8.405712,0 7.949392,0 M4.442672,0 L4.35752533,0 C3.90120533,0 3.53085867,0.453501818 3.53085867,1.01454545 C3.53085867,1.57558909 3.90120533,2.02909091 4.35752533,2.02909091 L4.442672,2.02909091 C4.89981867,2.02909091 5.26933867,1.57558909 5.26933867,1.01454545 C5.26933867,0.453501818 4.89981867,0 4.442672,0" id="Fill-14" fill="#65C8FA"></path>
                <path d="M28.9454027,0 L28.9040693,0 C28.4469227,0 28.0980693,0.453501818 28.0980693,1.01454545 C28.0980693,1.57558909 28.4890827,2.02909091 28.9454027,2.02909091 C29.4017227,2.02909091 29.7720693,1.57558909 29.7720693,1.01454545 C29.7720693,0.453501818 29.4017227,0 28.9454027,0" id="Fill-16" fill="#65C8FA"></path>
                <path d="M4.36785867,14.3194975 C3.91153867,14.3194975 3.541192,13.8659956 3.541192,13.304952 L3.541192,7.77060655 C3.541192,7.20956291 3.91153867,6.75606109 4.36785867,6.75606109 C4.82417867,6.75606109 5.19452533,7.20956291 5.19452533,7.77060655 L5.19452533,13.304952 C5.19452533,13.8659956 4.82417867,14.3194975 4.36785867,14.3194975" id="Fill-18" fill="#65C8FA"></path>
                <path d="M4.41745867,15.4777025 C4.205832,15.4777025 3.99420533,15.3782771 3.83300533,15.1804407 L1.428232,12.229128 C1.10500533,11.8324407 1.10500533,11.1902335 1.428232,10.7945607 C1.750632,10.3978735 2.273912,10.3978735 2.59713867,10.7945607 L4.41745867,13.0285898 L6.04516533,11.0309498 C6.36756533,10.6352771 6.89084533,10.6352771 7.214072,11.0309498 C7.536472,11.4276371 7.536472,12.0698444 7.214072,12.4655171 L5.001912,15.1804407 C4.840712,15.3782771 4.62908533,15.4777025 4.41745867,15.4777025" id="Fill-20" fill="#65C8FA"></path>
                <path d="M4.36785867,4.10769164 C3.91153867,4.10769164 3.541192,4.56119345 3.541192,5.12223709 L3.541192,7.77020073 C3.541192,7.21017164 3.91153867,6.75565527 4.36785867,6.75565527 C4.82417867,6.75565527 5.19452533,7.21017164 5.19452533,7.77020073 L5.19452533,5.12223709 C5.19452533,4.56119345 4.82417867,4.10769164 4.36785867,4.10769164" id="Fill-22" fill="#5256E9"></path>
                <path d="M4.36785867,6.75606109 C3.91153867,6.75606109 3.541192,7.20956291 3.541192,7.77060655 C3.541192,8.33165018 3.91153867,8.785152 4.36785867,8.785152 C4.82417867,8.785152 5.19452533,8.33165018 5.19452533,7.77060655 C5.19452533,7.20956291 4.82417867,6.75606109 4.36785867,6.75606109" id="Fill-24" fill="#2043E4"></path>
                <path d="M25.4635653,22.1139458 C25.0072453,22.1139458 24.6368987,21.660444 24.6368987,21.0994004 L24.6368987,17.5566076 C24.6368987,16.995564 25.0072453,16.5420622 25.4635653,16.5420622 C25.9198853,16.5420622 26.290232,16.995564 26.290232,17.5566076 L26.290232,21.0994004 C26.290232,21.660444 25.9198853,22.1139458 25.4635653,22.1139458" id="Fill-26" fill="#5256E9"></path>
                <path d="M28.1748667,20.801124 C27.96324,20.801124 27.7516133,20.7016985 27.5904133,20.5038622 L25.4138,17.832564 L23.4430267,20.2512404 C23.1206267,20.6479276 22.5973467,20.6479276 22.27412,20.2512404 C21.95172,19.8545531 21.95172,19.2133604 22.27412,18.8166731 L24.8293467,15.6807131 C25.1525733,15.2850404 25.6758533,15.2850404 25.9982533,15.6807131 L28.75932,19.0692949 C29.0825467,19.4659822 29.0825467,20.1071749 28.75932,20.5038622 C28.59812,20.7016985 28.3864933,20.801124 28.1748667,20.801124" id="Fill-28" fill="#5256E9"></path>
                <path d="M26.290232,21.0994004 L26.290232,21.0994004 C26.290232,21.660444 25.9198853,22.1139458 25.4635653,22.1139458 C25.0072453,22.1139458 24.6368987,21.660444 24.6368987,21.0994004 L24.6368987,24.5803058 C24.6368987,25.1403349 25.0072453,25.5948513 25.4635653,25.5948513 C25.9198853,25.5948513 26.290232,25.1403349 26.290232,24.5803058 L26.290232,21.0994004" id="Fill-30" fill="#65C8FA"></path>
                <path d="M25.4635653,20.0848549 C25.0072453,20.0848549 24.6368987,20.5383567 24.6368987,21.0994004 C24.6368987,21.660444 25.0072453,22.1139458 25.4635653,22.1139458 C25.9198853,22.1139458 26.290232,21.660444 26.290232,21.0994004 C26.290232,20.5383567 25.9198853,20.0848549 25.4635653,20.0848549" id="Fill-32" fill="#2043E4"></path>
                <path d="M21.6329573,14.2204778 L21.6329573,14.2204778 C21.4138907,14.2204778 21.2030907,14.1139505 21.048504,13.923216 L19.2513307,11.7165796 L17.9989307,13.253616 C17.675704,13.6503033 17.1532507,13.6503033 16.830024,13.253616 C16.5067973,12.8569287 16.5067973,12.2147215 16.830024,11.8190487 L18.6668773,9.56472873 C18.821464,9.37500873 19.032264,9.26746691 19.2513307,9.26746691 C19.4703973,9.26746691 19.6803707,9.37500873 19.835784,9.56472873 L21.6329573,11.7713651 L28.3611973,3.51397964 C28.6835973,3.11830691 29.2068773,3.11830691 29.530104,3.51397964 C29.852504,3.91066691 29.852504,4.55287418 29.530104,4.94854691 L22.2174107,13.923216 C22.062824,14.1139505 21.852024,14.2204778 21.6329573,14.2204778" id="Fill-34" fill="#5256E9"></path>
                <g id="Group-38" transform="translate(0.000000, 12.438936)">
                    <mask id="mask-8" fill="white">
                        <use xlink:href="#path-7"></use>
                    </mask>
                    <g id="Clip-37"></g>
                    <path d="M0.826666667,14.030352 C0.61504,14.030352 0.403413333,13.9309265 0.242213333,13.7330902 C-0.0810133333,13.3364029 -0.0810133333,12.6952102 0.242213333,12.2985229 L9.28512,1.20041018 C9.60834667,0.803722909 10.1316267,0.803722909 10.4540267,1.20041018 L12.90096,4.20143564 L15.0321067,1.586952 C15.3545067,1.19127927 15.8777867,1.19127927 16.2010133,1.586952 C16.5234133,1.98363927 16.5234133,2.62584655 16.2010133,3.02151927 L13.4854133,6.35430109 C13.1621867,6.74997382 12.6397333,6.74997382 12.3165067,6.35430109 L9.86957333,3.35226109 L1.41112,13.7330902 C1.24992,13.9309265 1.03829333,14.030352 0.826666667,14.030352" id="Fill-36" fill="#5256E9" mask="url(#mask-8)"></path>
                </g>
            </g>
        </g>
    </g>
</svg>